<svg version="1.1" id="Layer_1" xmlns="http://www.w3.org/2000/svg" xmlns:xlink="http://www.w3.org/1999/xlink" x="0px" y="0px"
	 width="100%" viewBox="0 0 921 803" enable-background="new 0 0 921 803" xml:space="preserve">
<path fill="#RRGGBBAA" stroke="none"
	d="
M626.000000,804.000000 
	C417.333405,804.000000 209.166794,804.000000 1.000140,804.000000 
	C1.000093,536.333496 1.000093,268.666962 1.000046,1.000319 
	C307.999786,1.000213 614.999573,1.000213 921.999512,1.000106 
	C921.999634,268.666351 921.999634,536.332703 921.999817,803.999512 
	C823.500000,804.000000 725.000000,804.000000 626.000000,804.000000 
M151.899933,552.406616 
	C146.536453,561.787842 141.195175,571.181885 135.804993,580.547729 
	C123.789345,601.425903 111.695084,622.259033 99.733749,643.168213 
	C86.625992,666.081360 73.602318,689.042786 60.597256,712.014526 
	C50.049911,730.645020 39.559956,749.308167 29.096237,767.985718 
	C25.583885,774.255249 22.230692,780.613892 18.520828,787.455383 
	C20.816946,787.566162 22.274240,787.705017 23.730700,787.696777 
	C59.217163,787.495544 94.703453,787.211548 130.190048,787.166992 
	C133.795761,787.162476 135.133072,785.252625 136.546082,782.757507 
	C141.373306,774.233765 146.175018,765.695312 151.057632,757.203369 
	C173.653488,717.904358 196.286301,678.626648 218.881042,639.327026 
	C243.499420,596.507629 267.908234,553.566528 292.742035,510.872528 
	C320.342407,463.422241 348.311462,416.186310 376.138824,368.868134 
	C381.681793,359.442719 387.309845,350.067322 393.333191,339.938080 
	C394.987854,342.590942 396.235474,344.490143 397.383881,346.447571 
	C413.900116,374.598938 430.646088,402.619049 446.849335,430.949585 
	C468.507996,468.818634 489.791595,506.902832 511.068726,544.988220 
	C512.776123,548.044373 514.494934,549.198364 517.971802,549.180298 
	C553.634888,548.995178 589.298828,548.982544 624.962463,548.901733 
	C626.203369,548.898926 627.443787,548.686646 630.452271,548.408569 
	C550.673828,409.421143 471.458527,271.414825 392.190002,133.315720 
	C383.787964,148.312622 375.368408,163.402176 366.891205,178.459274 
	C348.371155,211.354446 329.887543,244.270355 311.262482,277.106049 
	C297.719147,300.982758 284.009399,324.765381 270.307800,348.551910 
	C255.192398,374.792938 240.032898,401.008698 224.834641,427.201813 
	C209.894150,452.950684 194.883759,478.659027 179.898666,504.382019 
	C170.694244,520.182068 161.479706,535.976318 151.899933,552.406616 
M682.212463,400.277985 
	C657.952515,358.164520 633.731384,316.028656 609.421509,273.944061 
	C586.610718,234.454773 563.661194,195.045624 540.855286,155.553528 
	C517.717346,115.486443 494.687683,75.356789 471.590637,35.266029 
	C468.397919,29.724291 465.090485,24.248657 461.381073,17.972433 
	C455.721893,27.555271 450.556213,36.218170 445.471802,44.928535 
	C431.827087,68.304070 418.252563,91.720703 404.546814,115.060333 
	C402.901917,117.861427 403.039429,119.946770 404.715790,122.772972 
	C415.836273,141.520706 426.743530,160.395065 437.694031,179.243439 
	C458.510773,215.074051 479.355469,250.888565 500.105194,286.757965 
	C527.191650,333.581421 554.218506,380.439392 581.231201,427.305420 
	C605.418152,469.268951 629.558167,511.259521 653.698364,553.249939 
	C656.387634,557.927673 658.942749,562.682495 662.011719,568.215942 
	C659.323181,568.215942 657.702576,568.213623 656.082031,568.216248 
	C620.924133,568.273865 585.766235,568.381287 550.608337,568.377563 
	C508.285156,568.373047 465.961731,568.319702 423.639130,568.135376 
	C419.985840,568.119446 417.960022,569.310303 416.163422,572.450012 
	C401.630249,597.847595 386.921448,623.144714 372.292725,648.487732 
	C368.670380,654.763123 365.144989,661.094482 361.081085,668.272644 
	C519.993958,668.272644 677.783997,668.272644 835.927673,668.272644 
	C835.540894,667.263184 835.350220,666.471191 834.961182,665.792969 
	C821.548340,642.408691 808.112061,619.037720 794.689087,595.659180 
	C773.307495,558.419128 751.966003,521.156006 730.544556,483.938965 
	C714.600342,456.237885 698.556519,428.594116 682.212463,400.277985 
M776.500000,787.706543 
	C818.918213,787.706543 861.336487,787.706543 904.856506,787.706543 
	C903.385010,784.720520 902.620178,782.936340 901.663635,781.261719 
	C884.664368,751.500183 867.586182,721.783447 850.705078,691.955200 
	C848.890198,688.748535 846.902527,687.633423 843.277222,687.662659 
	C816.285583,687.880676 789.292175,687.957703 762.299377,687.948608 
	C620.158508,687.900696 478.017609,687.814392 335.876740,687.741455 
	C335.210175,687.741089 334.540527,687.782349 333.877747,687.732178 
	C332.622467,687.637207 331.371124,687.489807 329.704285,687.322693 
	C330.303162,685.837585 330.611725,684.745728 331.150848,683.782959 
	C346.337219,656.662231 361.571655,629.568359 376.747040,602.441467 
	C400.132965,560.637878 423.511108,518.829834 446.731201,476.934204 
	C447.623810,475.323608 447.625000,472.340332 446.721619,470.743469 
	C430.733551,442.482513 414.552643,414.330597 398.374420,386.177490 
	C396.512573,382.937500 394.418732,379.830780 391.621246,375.368286 
	C311.523956,513.508057 232.081039,650.519226 152.536118,787.706299 
	C360.294434,787.706299 567.897217,787.706299 776.500000,787.706543 
z"/>
<path fill="#2196BE" opacity="1.000000" stroke="none" 
	d="
M152.084808,552.089844 
	C161.479706,535.976318 170.694244,520.182068 179.898666,504.382019 
	C194.883759,478.659027 209.894150,452.950684 224.834641,427.201813 
	C240.032898,401.008698 255.192398,374.792938 270.307800,348.551910 
	C284.009399,324.765381 297.719147,300.982758 311.262482,277.106049 
	C329.887543,244.270355 348.371155,211.354446 366.891205,178.459274 
	C375.368408,163.402176 383.787964,148.312622 392.190002,133.315720 
	C471.458527,271.414825 550.673828,409.421143 630.452271,548.408569 
	C627.443787,548.686646 626.203369,548.898926 624.962463,548.901733 
	C589.298828,548.982544 553.634888,548.995178 517.971802,549.180298 
	C514.494934,549.198364 512.776123,548.044373 511.068726,544.988220 
	C489.791595,506.902832 468.507996,468.818634 446.849335,430.949585 
	C430.646088,402.619049 413.900116,374.598938 397.383881,346.447571 
	C396.235474,344.490143 394.987854,342.590942 393.333191,339.938080 
	C387.309845,350.067322 381.681793,359.442719 376.138824,368.868134 
	C348.311462,416.186310 320.342407,463.422241 292.742035,510.872528 
	C267.908234,553.566528 243.499420,596.507629 218.881042,639.327026 
	C196.286301,678.626648 173.653488,717.904358 151.057632,757.203369 
	C146.175018,765.695312 141.373306,774.233765 136.546082,782.757507 
	C135.133072,785.252625 133.795761,787.162476 130.190048,787.166992 
	C94.703453,787.211548 59.217163,787.495544 23.730700,787.696777 
	C22.274240,787.705017 20.816946,787.566162 18.520828,787.455383 
	C22.230692,780.613892 25.583885,774.255249 29.096237,767.985718 
	C39.559956,749.308167 50.049911,730.645020 60.597256,712.014526 
	C73.602318,689.042786 86.625992,666.081360 99.733749,643.168213 
	C111.695084,622.259033 123.789345,601.425903 135.804993,580.547729 
	C141.195175,571.181885 146.536453,561.787842 152.084808,552.089844 
z"/>
<path fill="#2196BE" opacity="1.000000" stroke="none" 
	d="
M682.384766,400.601410 
	C698.556519,428.594116 714.600342,456.237885 730.544556,483.938965 
	C751.966003,521.156006 773.307495,558.419128 794.689087,595.659180 
	C808.112061,619.037720 821.548340,642.408691 834.961182,665.792969 
	C835.350220,666.471191 835.540894,667.263184 835.927673,668.272644 
	C677.783997,668.272644 519.993958,668.272644 361.081085,668.272644 
	C365.144989,661.094482 368.670380,654.763123 372.292725,648.487732 
	C386.921448,623.144714 401.630249,597.847595 416.163422,572.450012 
	C417.960022,569.310303 419.985840,568.119446 423.639130,568.135376 
	C465.961731,568.319702 508.285156,568.373047 550.608337,568.377563 
	C585.766235,568.381287 620.924133,568.273865 656.082031,568.216248 
	C657.702576,568.213623 659.323181,568.215942 662.011719,568.215942 
	C658.942749,562.682495 656.387634,557.927673 653.698364,553.249939 
	C629.558167,511.259521 605.418152,469.268951 581.231201,427.305420 
	C554.218506,380.439392 527.191650,333.581421 500.105194,286.757965 
	C479.355469,250.888565 458.510773,215.074051 437.694031,179.243439 
	C426.743530,160.395065 415.836273,141.520706 404.715790,122.772972 
	C403.039429,119.946770 402.901917,117.861427 404.546814,115.060333 
	C418.252563,91.720703 431.827087,68.304070 445.471802,44.928535 
	C450.556213,36.218170 455.721893,27.555271 461.381073,17.972433 
	C465.090485,24.248657 468.397919,29.724291 471.590637,35.266029 
	C494.687683,75.356789 517.717346,115.486443 540.855286,155.553528 
	C563.661194,195.045624 586.610718,234.454773 609.421509,273.944061 
	C633.731384,316.028656 657.952515,358.164520 682.384766,400.601410 
z"/>
<path fill="#2196BE" opacity="1.000000" stroke="none" 
	d="
M776.000000,787.706421 
	C567.897217,787.706299 360.294434,787.706299 152.536118,787.706299 
	C232.081039,650.519226 311.523956,513.508057 391.621246,375.368286 
	C394.418732,379.830780 396.512573,382.937500 398.374420,386.177490 
	C414.552643,414.330597 430.733551,442.482513 446.721619,470.743469 
	C447.625000,472.340332 447.623810,475.323608 446.731201,476.934204 
	C423.511108,518.829834 400.132965,560.637878 376.747040,602.441467 
	C361.571655,629.568359 346.337219,656.662231 331.150848,683.782959 
	C330.611725,684.745728 330.303162,685.837585 329.704285,687.322693 
	C331.371124,687.489807 332.622467,687.637207 333.877747,687.732178 
	C334.540527,687.782349 335.210175,687.741089 335.876740,687.741455 
	C478.017609,687.814392 620.158508,687.900696 762.299377,687.948608 
	C789.292175,687.957703 816.285583,687.880676 843.277222,687.662659 
	C846.902527,687.633423 848.890198,688.748535 850.705078,691.955200 
	C867.586182,721.783447 884.664368,751.500183 901.663635,781.261719 
	C902.620178,782.936340 903.385010,784.720520 904.856506,787.706543 
	C861.336487,787.706543 818.918213,787.706543 776.000000,787.706421 
z"/>
</svg>