<svg version="1.1" id="Layer_1" xmlns="http://www.w3.org/2000/svg" xmlns:xlink="http://www.w3.org/1999/xlink" x="0px" y="0px"
	 width="100%" viewBox="0 0 1681 320" enable-background="new 0 0 1681 320" xml:space="preserve">
<path opacity="1.000000" stroke="none"
	d="
M1232.000000,321.000000 
	C821.384521,321.000000 411.269043,321.000000 1.076791,321.000000 
	C1.076791,214.397888 1.076791,107.795708 1.076791,1.096761 
	C561.333313,1.096761 1121.666626,1.096761 1681.971680,1.096761 
	C1681.971680,107.731071 1681.971680,214.365540 1681.971680,321.000000 
	C1532.128906,321.000000 1382.314453,321.000000 1232.000000,321.000000 
M558.907227,171.658081 
	C567.296387,200.246902 575.770691,228.811340 583.968872,257.454803 
	C585.017883,261.119934 586.640076,262.265198 590.202637,262.063965 
	C594.521545,261.820038 598.916199,261.586945 603.184753,262.110321 
	C608.755493,262.793365 610.904602,260.466064 612.378479,255.293625 
	C625.338623,209.812469 638.561584,164.406189 651.705566,118.977409 
	C654.091370,110.731438 656.471680,102.483871 658.892090,94.107224 
	C653.031921,94.107224 647.739746,94.169075 642.449707,94.090065 
	C637.012451,94.008858 634.457703,96.436012 632.978638,101.904327 
	C622.200745,141.751129 611.054932,181.498398 600.011108,221.273178 
	C599.515686,223.057327 598.882507,224.803207 597.901672,227.843369 
	C596.837036,224.939636 596.242920,223.569565 595.826660,222.147415 
	C583.725403,180.801453 571.594910,139.463852 559.642578,98.074821 
	C558.661499,94.677513 557.215332,93.604820 553.784729,93.767532 
	C547.799011,94.051407 541.785645,93.983849 535.792908,93.787811 
	C532.851990,93.691597 531.411011,94.468201 530.527466,97.543533 
	C523.817932,120.896790 516.866699,144.180435 510.038757,167.499817 
	C504.248047,187.276657 498.521271,207.072250 492.474976,227.860718 
	C491.623688,225.734924 491.049927,224.577698 490.689209,223.357513 
	C488.049774,214.428879 485.345642,205.517349 482.862030,196.545044 
	C473.768402,163.693069 464.772400,130.814056 455.637756,97.973549 
	C455.260284,96.616447 453.899445,94.539566 452.927063,94.499748 
	C445.706573,94.204124 438.468414,94.339432 430.864746,94.339432 
	C431.529297,96.707451 432.086853,98.780891 432.692719,100.840111 
	C440.907898,128.762589 449.200195,156.662628 457.328796,184.610275 
	C464.392212,208.895630 471.312988,233.222809 478.185608,257.562897 
	C479.118713,260.867676 480.359039,262.735443 484.282593,262.303040 
	C489.068176,261.775574 493.943085,261.548401 498.744507,261.816406 
	C503.666443,262.091064 505.423157,259.926086 506.735321,255.400162 
	C518.742615,213.984436 531.011414,172.644485 543.245239,131.294632 
	C543.525696,130.346527 544.289246,129.541367 545.713013,127.235306 
	C550.338074,142.742416 554.533386,156.808670 558.907227,171.658081 
M94.767883,227.253998 
	C111.705070,198.038406 128.642273,168.822815 145.919632,139.020432 
	C147.033798,140.555481 147.651703,141.264633 148.113617,142.063950 
	C160.096512,162.800095 172.374527,183.375824 183.836960,204.396210 
	C187.141342,210.455948 190.726089,212.387650 197.341507,211.984619 
	C207.385162,211.372696 217.493622,211.824585 228.936783,211.824585 
	C200.915024,162.916672 173.615494,115.269318 146.102112,67.248688 
	C102.713394,142.800964 59.428585,218.172318 15.699430,294.317413 
	C29.575151,294.317413 42.001465,294.366852 54.425537,294.222900 
	C55.412575,294.211487 56.711887,293.062592 57.306572,292.097534 
	C60.001263,287.724670 62.494572,283.227692 65.061180,278.775848 
	C74.840317,261.813965 84.619774,244.852249 94.767883,227.253998 
M135.453934,238.995575 
	C144.897675,222.223450 154.369339,205.466888 163.730865,188.649002 
	C164.461456,187.336487 165.198624,185.165176 164.619949,184.119476 
	C158.684082,173.393066 152.476776,162.816895 145.739548,151.149918 
	C117.769493,199.382568 90.332832,246.695419 62.677841,294.384766 
	C150.174500,294.384766 236.834915,294.384766 324.397461,294.384766 
	C318.517517,284.101044 312.866028,274.550751 307.581146,264.801727 
	C305.598938,261.145264 303.290161,259.801605 299.010498,259.814392 
	C242.871353,259.981506 186.731552,259.925507 130.591904,259.925507 
	C128.726791,259.925507 126.861679,259.925507 123.939102,259.925507 
	C128.099167,252.373352 131.604385,246.010010 135.453934,238.995575 
M183.500061,218.368240 
	C175.837265,218.368195 168.160614,218.643097 160.517242,218.257721 
	C156.398071,218.050034 153.932739,219.440170 152.359055,223.044830 
	C151.898209,224.100449 151.176483,225.040085 150.600433,226.047821 
	C145.612289,234.773773 140.630081,243.503143 135.356400,252.738892 
	C190.607773,252.738892 245.018677,252.738892 300.292175,252.738892 
	C256.776917,177.262848 213.671738,102.498016 170.466415,27.559504 
	C169.323364,28.489460 168.812210,28.724150 168.578629,29.121862 
	C162.704285,39.123688 156.724426,49.068798 151.150162,59.236069 
	C150.286758,60.810863 150.598038,63.823166 151.555038,65.486687 
	C176.683899,109.166908 201.976074,152.753143 227.221909,196.366089 
	C231.267960,203.355789 235.226974,210.395859 239.771088,218.368622 
	C220.657303,218.368622 202.578690,218.368622 183.500061,218.368240 
M1523.500000,220.579437 
	C1541.325562,220.656403 1559.151855,220.834534 1576.976196,220.721542 
	C1580.376709,220.699997 1581.942505,221.774475 1583.141724,224.909088 
	C1587.524780,236.365906 1592.169556,247.723663 1596.836182,259.069183 
	C1597.306641,260.212952 1598.571045,261.832336 1599.504272,261.857788 
	C1607.603516,262.078491 1615.711304,261.984985 1624.259155,261.984985 
	C1623.825928,260.266296 1623.693848,259.122284 1623.257324,258.109467 
	C1619.643188,249.725067 1615.952393,241.373779 1612.323730,232.995651 
	C1604.204712,214.250519 1596.029053,195.529495 1588.022705,176.736298 
	C1577.745605,152.612686 1567.784180,128.353287 1557.342896,104.301605 
	C1552.311890,92.712265 1551.974121,93.218224 1539.283081,93.888855 
	C1533.744385,94.181534 1530.974976,96.641670 1528.947754,101.248123 
	C1522.988770,114.789337 1516.830444,128.242844 1510.863770,141.780746 
	C1496.788574,173.716278 1482.760620,205.672791 1468.755859,237.639252 
	C1465.322021,245.477173 1462.049561,253.385803 1458.386963,262.005493 
	C1466.044312,262.005493 1472.835938,261.865265 1479.616943,262.069305 
	C1482.649902,262.160583 1484.294189,261.456360 1485.542603,258.347656 
	C1490.250732,246.623688 1495.262939,235.016953 1500.447266,223.495056 
	C1501.095703,222.054153 1503.411133,220.578262 1505.023438,220.497284 
	C1510.832886,220.205444 1516.672119,220.503799 1523.500000,220.579437 
M1392.447754,249.170731 
	C1396.791260,262.004639 1396.791260,262.004608 1410.584961,262.004547 
	C1411.751587,262.004547 1412.943115,261.849579 1414.080078,262.033478 
	C1417.524658,262.590637 1419.015259,261.080505 1420.060791,257.803284 
	C1427.291504,235.137619 1434.738159,212.540863 1442.102051,189.917618 
	C1446.312744,176.981491 1450.498169,164.037170 1455.120117,149.785339 
	C1448.664185,149.785339 1442.918213,149.945740 1437.187256,149.721268 
	C1434.073853,149.599350 1432.500244,150.385788 1431.565308,153.659698 
	C1426.172363,172.545731 1420.553833,191.367859 1414.927856,210.186523 
	C1412.728882,217.541718 1410.311768,224.831711 1407.616943,233.342285 
	C1406.573364,230.619827 1405.998657,229.258652 1405.524414,227.863373 
	C1397.128174,203.161163 1388.667725,178.480133 1380.451782,153.718033 
	C1379.396240,150.536621 1377.931641,149.532745 1374.789917,149.734024 
	C1370.473633,150.010559 1366.114868,150.215744 1361.811157,149.918610 
	C1358.124146,149.664032 1356.614990,151.076797 1355.533081,154.505905 
	C1348.771484,175.935074 1341.779175,197.291382 1334.874390,218.675415 
	C1333.436035,223.129684 1332.044800,227.599152 1330.631836,232.061615 
	C1328.398682,228.403564 1327.058228,224.879852 1325.970337,221.279800 
	C1319.239868,199.010468 1312.597656,176.714432 1305.811279,154.462234 
	C1305.296753,152.775177 1303.960693,150.080399 1302.891113,150.023499 
	C1295.526978,149.631744 1288.132080,149.817520 1280.704468,149.817520 
	C1280.770020,151.116653 1280.714722,151.465042 1280.813110,151.762604 
	C1292.597168,187.413589 1304.421997,223.051208 1316.134277,258.725769 
	C1317.122070,261.734955 1318.720215,262.389496 1321.669800,262.141052 
	C1326.307007,261.750458 1331.003174,261.577789 1335.643066,261.849121 
	C1339.457031,262.072144 1341.139648,260.817780 1342.273926,257.069794 
	C1349.550049,233.026901 1357.098633,209.066452 1364.571167,185.083130 
	C1365.170776,183.159088 1365.872559,181.266907 1366.526855,179.359940 
	C1366.953369,179.413010 1367.379883,179.466095 1367.806519,179.519165 
	C1375.929443,202.487900 1384.052368,225.456619 1392.447754,249.170731 
M958.284851,182.782745 
	C969.061157,172.203445 980.674622,162.424484 990.844788,149.790634 
	C983.756348,149.790634 977.931091,149.661636 972.114258,149.826736 
	C966.243164,149.993378 961.318604,152.152664 957.043396,156.481323 
	C944.405090,169.277725 931.500732,181.811462 918.686462,194.433792 
	C917.684753,195.420456 916.574585,196.297028 914.489502,198.122360 
	C914.489502,158.895737 914.489502,120.890282 914.489502,82.804192 
	C906.886475,82.804192 900.041748,82.804192 892.914368,82.804192 
	C892.914368,84.413109 892.914368,85.566254 892.914368,86.719398 
	C892.914368,143.529816 892.914307,200.340240 892.915344,257.150665 
	C892.915344,257.983551 892.650635,258.967377 893.001282,259.614166 
	C893.535339,260.599274 894.476501,262.062195 895.285461,262.088867 
	C901.513855,262.294220 907.752014,262.201874 914.587646,262.201874 
	C914.587646,242.706406 914.587646,224.499191 914.587646,206.291962 
	C914.996277,206.083710 915.404968,205.875443 915.813599,205.667191 
	C917.924622,207.910431 920.076050,210.117142 922.140320,212.402679 
	C936.306091,228.087738 950.445740,243.796463 964.626526,259.467926 
	C965.486084,260.417694 966.612671,261.800598 967.637512,261.820587 
	C976.998779,262.002960 986.364990,261.927765 997.011597,261.927765 
	C977.351013,240.843109 958.676331,220.815689 939.701477,200.466415 
	C946.017090,194.464722 951.900635,188.873657 958.284851,182.782745 
M770.987793,234.520996 
	C780.183167,217.605484 780.781189,200.075958 773.538513,182.545212 
	C759.637329,148.897552 720.324402,139.479446 692.713623,152.832123 
	C652.352478,172.350891 646.671570,224.896423 682.976257,253.475677 
	C709.487610,274.345581 752.637817,265.990417 770.987793,234.520996 
M1154.015625,178.469254 
	C1138.954834,204.906509 1148.015991,242.154739 1180.805664,258.910370 
	C1208.412476,273.017548 1245.184570,261.404999 1259.987305,233.176941 
	C1274.475830,205.548111 1265.344360,171.800964 1237.155396,155.209732 
	C1206.490234,137.160980 1169.590454,149.754456 1154.015625,178.469254 
M1059.464478,149.718536 
	C1055.369629,149.718536 1051.274780,149.718536 1046.400269,149.718536 
	C1046.400269,141.044983 1046.232300,133.086853 1046.464478,125.140388 
	C1046.599976,120.502625 1047.135376,115.842537 1047.918823,111.265709 
	C1049.096924,104.381828 1052.769287,100.799355 1059.831299,99.829010 
	C1065.414307,99.061905 1071.078125,98.883087 1077.250854,98.400429 
	C1077.754028,92.838173 1078.267822,87.158028 1078.838257,80.852837 
	C1071.483154,80.852837 1064.851440,80.582191 1058.248535,80.904564 
	C1039.865967,81.802048 1029.770874,90.057426 1026.880249,108.241814 
	C1024.957764,120.335373 1024.831543,132.730774 1024.224365,145.007034 
	C1024.045044,148.631165 1023.052063,149.975189 1019.291138,149.798004 
	C1013.060974,149.504471 1006.806946,149.718155 1000.566162,149.718155 
	C1000.566162,156.321945 1000.566162,162.084702 1000.566162,168.480957 
	C1008.556030,168.480957 1016.273315,168.480957 1024.395142,168.480957 
	C1024.395142,199.994507 1024.395142,230.872009 1024.395142,261.588257 
	C1031.678955,261.588257 1038.522461,261.588257 1045.937744,261.588257 
	C1045.937744,230.175278 1045.937744,199.467163 1045.937744,168.436188 
	C1054.793945,168.436188 1063.064453,168.436188 1071.400635,168.436188 
	C1071.400635,162.085464 1071.400635,156.079544 1071.400635,149.718918 
	C1067.398193,149.718918 1063.923340,149.718918 1059.464478,149.718536 
M1669.613403,253.412689 
	C1669.613403,200.353256 1669.613403,147.293823 1669.613403,94.185989 
	C1661.713257,94.185989 1654.174561,94.185989 1646.933350,94.185989 
	C1646.933350,150.423187 1646.933350,206.257660 1646.933350,261.790314 
	C1654.696777,261.790314 1661.933594,261.790314 1669.613281,261.790314 
	C1669.613281,258.979950 1669.613281,256.679474 1669.613403,253.412689 
M1118.117310,94.515511 
	C1118.117310,90.592049 1118.117310,86.668587 1118.117310,82.727844 
	C1110.633179,82.727844 1103.902222,82.727844 1097.103760,82.727844 
	C1097.103760,142.522598 1097.103760,201.936523 1097.103760,262.003998 
	C1102.496948,262.003998 1107.634766,261.690674 1112.715210,262.097290 
	C1117.264526,262.461426 1118.223999,260.789703 1118.212402,256.475555 
	C1118.067139,202.821136 1118.117432,149.166199 1118.117310,94.515511 
M870.050476,160.470886 
	C870.050476,156.221497 870.050476,151.972107 870.050476,146.107483 
	C861.097900,147.501526 852.523438,147.272888 845.412964,150.387039 
	C838.406433,153.455627 832.882996,159.910461 826.211670,165.279739 
	C826.211670,159.840485 826.211670,154.947128 826.211670,150.259003 
	C819.084290,150.259003 812.371704,150.259003 805.513062,150.259003 
	C805.513062,187.693970 805.513062,224.586288 805.513062,261.733337 
	C812.562927,261.733337 819.294373,261.733337 826.615173,261.733337 
	C826.615173,259.835419 826.591614,258.214386 826.618774,256.594208 
	C826.953003,236.623672 827.430054,216.654083 827.550110,196.682327 
	C827.585266,190.837311 829.478271,186.176575 833.265381,181.868439 
	C839.320312,174.980530 846.031982,169.771957 855.882385,170.313416 
	C860.471863,170.565689 865.086670,170.356537 870.050476,170.356537 
	C870.050476,167.071243 870.050476,164.259064 870.050476,160.470886 
z"/>
<path fill="#324456" opacity="1.000000" stroke="none" 
	d="
M558.817993,171.266510 
	C554.533386,156.808670 550.338074,142.742416 545.713013,127.235306 
	C544.289246,129.541367 543.525696,130.346527 543.245239,131.294632 
	C531.011414,172.644485 518.742615,213.984436 506.735321,255.400162 
	C505.423157,259.926086 503.666443,262.091064 498.744507,261.816406 
	C493.943085,261.548401 489.068176,261.775574 484.282593,262.303040 
	C480.359039,262.735443 479.118713,260.867676 478.185608,257.562897 
	C471.312988,233.222809 464.392212,208.895630 457.328796,184.610275 
	C449.200195,156.662628 440.907898,128.762589 432.692719,100.840111 
	C432.086853,98.780891 431.529297,96.707451 430.864746,94.339432 
	C438.468414,94.339432 445.706573,94.204124 452.927063,94.499748 
	C453.899445,94.539566 455.260284,96.616447 455.637756,97.973549 
	C464.772400,130.814056 473.768402,163.693069 482.862030,196.545044 
	C485.345642,205.517349 488.049774,214.428879 490.689209,223.357513 
	C491.049927,224.577698 491.623688,225.734924 492.474976,227.860718 
	C498.521271,207.072250 504.248047,187.276657 510.038757,167.499817 
	C516.866699,144.180435 523.817932,120.896790 530.527466,97.543533 
	C531.411011,94.468201 532.851990,93.691597 535.792908,93.787811 
	C541.785645,93.983849 547.799011,94.051407 553.784729,93.767532 
	C557.215332,93.604820 558.661499,94.677513 559.642578,98.074821 
	C571.594910,139.463852 583.725403,180.801453 595.826660,222.147415 
	C596.242920,223.569565 596.837036,224.939636 597.901672,227.843369 
	C598.882507,224.803207 599.515686,223.057327 600.011108,221.273178 
	C611.054932,181.498398 622.200745,141.751129 632.978638,101.904327 
	C634.457703,96.436012 637.012451,94.008858 642.449707,94.090065 
	C647.739746,94.169075 653.031921,94.107224 658.892090,94.107224 
	C656.471680,102.483871 654.091370,110.731438 651.705566,118.977409 
	C638.561584,164.406189 625.338623,209.812469 612.378479,255.293625 
	C610.904602,260.466064 608.755493,262.793365 603.184753,262.110321 
	C598.916199,261.586945 594.521545,261.820038 590.202637,262.063965 
	C586.640076,262.265198 585.017883,261.119934 583.968872,257.454803 
	C575.770691,228.811340 567.296387,200.246902 558.817993,171.266510 
z"/>
<path fill="#2296BF" opacity="1.000000" stroke="none" 
	d="
M94.583496,227.572235 
	C84.619774,244.852249 74.840317,261.813965 65.061180,278.775848 
	C62.494572,283.227692 60.001263,287.724670 57.306572,292.097534 
	C56.711887,293.062592 55.412575,294.211487 54.425537,294.222900 
	C42.001465,294.366852 29.575151,294.317413 15.699430,294.317413 
	C59.428585,218.172318 102.713394,142.800964 146.102112,67.248688 
	C173.615494,115.269318 200.915024,162.916672 228.936783,211.824585 
	C217.493622,211.824585 207.385162,211.372696 197.341507,211.984619 
	C190.726089,212.387650 187.141342,210.455948 183.836960,204.396210 
	C172.374527,183.375824 160.096512,162.800095 148.113617,142.063950 
	C147.651703,141.264633 147.033798,140.555481 145.919632,139.020432 
	C128.642273,168.822815 111.705070,198.038406 94.583496,227.572235 
z"/>
<path fill="#2497BF" opacity="1.000000" stroke="none" 
	d="
M135.281769,239.321121 
	C131.604385,246.010010 128.099167,252.373352 123.939102,259.925507 
	C126.861679,259.925507 128.726791,259.925507 130.591904,259.925507 
	C186.731552,259.925507 242.871353,259.981506 299.010498,259.814392 
	C303.290161,259.801605 305.598938,261.145264 307.581146,264.801727 
	C312.866028,274.550751 318.517517,284.101044 324.397461,294.384766 
	C236.834915,294.384766 150.174500,294.384766 62.677841,294.384766 
	C90.332832,246.695419 117.769493,199.382568 145.739548,151.149918 
	C152.476776,162.816895 158.684082,173.393066 164.619949,184.119476 
	C165.198624,185.165176 164.461456,187.336487 163.730865,188.649002 
	C154.369339,205.466888 144.897675,222.223450 135.281769,239.321121 
z"/>
<path fill="#2396BF" opacity="1.000000" stroke="none" 
	d="
M184.000061,218.368439 
	C202.578690,218.368622 220.657303,218.368622 239.771088,218.368622 
	C235.226974,210.395859 231.267960,203.355789 227.221909,196.366089 
	C201.976074,152.753143 176.683899,109.166908 151.555038,65.486687 
	C150.598038,63.823166 150.286758,60.810863 151.150162,59.236069 
	C156.724426,49.068798 162.704285,39.123688 168.578629,29.121862 
	C168.812210,28.724150 169.323364,28.489460 170.466415,27.559504 
	C213.671738,102.498016 256.776917,177.262848 300.292175,252.738892 
	C245.018677,252.738892 190.607773,252.738892 135.356400,252.738892 
	C140.630081,243.503143 145.612289,234.773773 150.600433,226.047821 
	C151.176483,225.040085 151.898209,224.100449 152.359055,223.044830 
	C153.932739,219.440170 156.398071,218.050034 160.517242,218.257721 
	C168.160614,218.643097 175.837265,218.368195 184.000061,218.368439 
z"/>
<path fill="#324455" opacity="1.000000" stroke="none" 
	d="
M1523.000000,220.579330 
	C1516.672119,220.503799 1510.832886,220.205444 1505.023438,220.497284 
	C1503.411133,220.578262 1501.095703,222.054153 1500.447266,223.495056 
	C1495.262939,235.016953 1490.250732,246.623688 1485.542603,258.347656 
	C1484.294189,261.456360 1482.649902,262.160583 1479.616943,262.069305 
	C1472.835938,261.865265 1466.044312,262.005493 1458.386963,262.005493 
	C1462.049561,253.385803 1465.322021,245.477173 1468.755859,237.639252 
	C1482.760620,205.672791 1496.788574,173.716278 1510.863770,141.780746 
	C1516.830444,128.242844 1522.988770,114.789337 1528.947754,101.248123 
	C1530.974976,96.641670 1533.744385,94.181534 1539.283081,93.888855 
	C1551.974121,93.218224 1552.311890,92.712265 1557.342896,104.301605 
	C1567.784180,128.353287 1577.745605,152.612686 1588.022705,176.736298 
	C1596.029053,195.529495 1604.204712,214.250519 1612.323730,232.995651 
	C1615.952393,241.373779 1619.643188,249.725067 1623.257324,258.109467 
	C1623.693848,259.122284 1623.825928,260.266296 1624.259155,261.984985 
	C1615.711304,261.984985 1607.603516,262.078491 1599.504272,261.857788 
	C1598.571045,261.832336 1597.306641,260.212952 1596.836182,259.069183 
	C1592.169556,247.723663 1587.524780,236.365906 1583.141724,224.909088 
	C1581.942505,221.774475 1580.376709,220.699997 1576.976196,220.721542 
	C1559.151855,220.834534 1541.325562,220.656403 1523.000000,220.579330 
M1530.480103,148.959610 
	C1523.399902,166.214432 1516.319702,183.469269 1509.204956,200.808350 
	C1530.717773,200.808350 1551.746216,200.808350 1573.265869,200.808350 
	C1562.573364,175.190659 1552.094360,150.084717 1541.615356,124.978783 
	C1541.191895,125.074783 1540.768433,125.170792 1540.344971,125.266800 
	C1537.142944,132.923065 1533.940918,140.579315 1530.480103,148.959610 
z"/>
<path fill="#324455" opacity="1.000000" stroke="none" 
	d="
M1392.311523,248.798035 
	C1384.052368,225.456619 1375.929443,202.487900 1367.806519,179.519165 
	C1367.379883,179.466095 1366.953369,179.413010 1366.526855,179.359940 
	C1365.872559,181.266907 1365.170776,183.159088 1364.571167,185.083130 
	C1357.098633,209.066452 1349.550049,233.026901 1342.273926,257.069794 
	C1341.139648,260.817780 1339.457031,262.072144 1335.643066,261.849121 
	C1331.003174,261.577789 1326.307007,261.750458 1321.669800,262.141052 
	C1318.720215,262.389496 1317.122070,261.734955 1316.134277,258.725769 
	C1304.421997,223.051208 1292.597168,187.413589 1280.813110,151.762604 
	C1280.714722,151.465042 1280.770020,151.116653 1280.704468,149.817520 
	C1288.132080,149.817520 1295.526978,149.631744 1302.891113,150.023499 
	C1303.960693,150.080399 1305.296753,152.775177 1305.811279,154.462234 
	C1312.597656,176.714432 1319.239868,199.010468 1325.970337,221.279800 
	C1327.058228,224.879852 1328.398682,228.403564 1330.631836,232.061615 
	C1332.044800,227.599152 1333.436035,223.129684 1334.874390,218.675415 
	C1341.779175,197.291382 1348.771484,175.935074 1355.533081,154.505905 
	C1356.614990,151.076797 1358.124146,149.664032 1361.811157,149.918610 
	C1366.114868,150.215744 1370.473633,150.010559 1374.789917,149.734024 
	C1377.931641,149.532745 1379.396240,150.536621 1380.451782,153.718033 
	C1388.667725,178.480133 1397.128174,203.161163 1405.524414,227.863373 
	C1405.998657,229.258652 1406.573364,230.619827 1407.616943,233.342285 
	C1410.311768,224.831711 1412.728882,217.541718 1414.927856,210.186523 
	C1420.553833,191.367859 1426.172363,172.545731 1431.565308,153.659698 
	C1432.500244,150.385788 1434.073853,149.599350 1437.187256,149.721268 
	C1442.918213,149.945740 1448.664185,149.785339 1455.120117,149.785339 
	C1450.498169,164.037170 1446.312744,176.981491 1442.102051,189.917618 
	C1434.738159,212.540863 1427.291504,235.137619 1420.060791,257.803284 
	C1419.015259,261.080505 1417.524658,262.590637 1414.080078,262.033478 
	C1412.943115,261.849579 1411.751587,262.004547 1410.584961,262.004547 
	C1396.791260,262.004608 1396.791260,262.004639 1392.311523,248.798035 
z"/>
<path fill="#324456" opacity="1.000000" stroke="none" 
	d="
M958.034546,183.032654 
	C951.900635,188.873657 946.017090,194.464722 939.701477,200.466415 
	C958.676331,220.815689 977.351013,240.843109 997.011597,261.927765 
	C986.364990,261.927765 976.998779,262.002960 967.637512,261.820587 
	C966.612671,261.800598 965.486084,260.417694 964.626526,259.467926 
	C950.445740,243.796463 936.306091,228.087738 922.140320,212.402679 
	C920.076050,210.117142 917.924622,207.910431 915.813599,205.667191 
	C915.404968,205.875443 914.996277,206.083710 914.587646,206.291962 
	C914.587646,224.499191 914.587646,242.706406 914.587646,262.201874 
	C907.752014,262.201874 901.513855,262.294220 895.285461,262.088867 
	C894.476501,262.062195 893.535339,260.599274 893.001282,259.614166 
	C892.650635,258.967377 892.915344,257.983551 892.915344,257.150665 
	C892.914307,200.340240 892.914368,143.529816 892.914368,86.719398 
	C892.914368,85.566254 892.914368,84.413109 892.914368,82.804192 
	C900.041748,82.804192 906.886475,82.804192 914.489502,82.804192 
	C914.489502,120.890282 914.489502,158.895737 914.489502,198.122360 
	C916.574585,196.297028 917.684753,195.420456 918.686462,194.433792 
	C931.500732,181.811462 944.405090,169.277725 957.043396,156.481323 
	C961.318604,152.152664 966.243164,149.993378 972.114258,149.826736 
	C977.931091,149.661636 983.756348,149.790634 990.844788,149.790634 
	C980.674622,162.424484 969.061157,172.203445 958.034546,183.032654 
z"/>
<path fill="#334456" opacity="1.000000" stroke="none" 
	d="
M770.824097,234.850281 
	C752.637817,265.990417 709.487610,274.345581 682.976257,253.475677 
	C646.671570,224.896423 652.352478,172.350891 692.713623,152.832123 
	C720.324402,139.479446 759.637329,148.897552 773.538513,182.545212 
	C780.781189,200.075958 780.183167,217.605484 770.824097,234.850281 
M735.848877,171.511429 
	C720.040283,163.785568 694.661133,165.770142 685.476501,188.589127 
	C679.679077,202.992599 680.884949,216.968750 689.198975,230.070526 
	C693.437256,236.749451 699.500305,241.379593 707.502869,242.822800 
	C722.776062,245.577255 737.413025,245.449738 747.084839,230.653595 
	C750.200378,225.887299 752.489807,220.295959 753.914185,214.762085 
	C758.420959,197.253281 751.295166,180.281158 735.848877,171.511429 
z"/>
<path fill="#324456" opacity="1.000000" stroke="none" 
	d="
M1154.161865,178.130875 
	C1169.590454,149.754456 1206.490234,137.160980 1237.155396,155.209732 
	C1265.344360,171.800964 1274.475830,205.548111 1259.987305,233.176941 
	C1245.184570,261.404999 1208.412476,273.017548 1180.805664,258.910370 
	C1148.015991,242.154739 1138.954834,204.906509 1154.161865,178.130875 
M1215.887085,168.282578 
	C1190.497192,164.428894 1173.647461,176.553268 1170.470337,200.962631 
	C1168.004517,219.906982 1178.577637,238.052155 1195.431763,242.728516 
	C1218.440796,249.112701 1239.921753,238.749084 1242.923096,210.431000 
	C1245.202637,188.923370 1235.211060,173.512283 1215.887085,168.282578 
z"/>
<path fill="#344557" opacity="1.000000" stroke="none" 
	d="
M1059.956543,149.718719 
	C1063.923340,149.718918 1067.398193,149.718918 1071.400635,149.718918 
	C1071.400635,156.079544 1071.400635,162.085464 1071.400635,168.436188 
	C1063.064453,168.436188 1054.793945,168.436188 1045.937744,168.436188 
	C1045.937744,199.467163 1045.937744,230.175278 1045.937744,261.588257 
	C1038.522461,261.588257 1031.678955,261.588257 1024.395142,261.588257 
	C1024.395142,230.872009 1024.395142,199.994507 1024.395142,168.480957 
	C1016.273315,168.480957 1008.556030,168.480957 1000.566162,168.480957 
	C1000.566162,162.084702 1000.566162,156.321945 1000.566162,149.718155 
	C1006.806946,149.718155 1013.060974,149.504471 1019.291138,149.798004 
	C1023.052063,149.975189 1024.045044,148.631165 1024.224365,145.007034 
	C1024.831543,132.730774 1024.957764,120.335373 1026.880249,108.241814 
	C1029.770874,90.057426 1039.865967,81.802048 1058.248535,80.904564 
	C1064.851440,80.582191 1071.483154,80.852837 1078.838257,80.852837 
	C1078.267822,87.158028 1077.754028,92.838173 1077.250854,98.400429 
	C1071.078125,98.883087 1065.414307,99.061905 1059.831299,99.829010 
	C1052.769287,100.799355 1049.096924,104.381828 1047.918823,111.265709 
	C1047.135376,115.842537 1046.599976,120.502625 1046.464478,125.140388 
	C1046.232300,133.086853 1046.400269,141.044983 1046.400269,149.718536 
	C1051.274780,149.718536 1055.369629,149.718536 1059.956543,149.718719 
z"/>
<path fill="#354758" opacity="1.000000" stroke="none" 
	d="
M1669.613281,253.895844 
	C1669.613281,256.679474 1669.613281,258.979950 1669.613281,261.790314 
	C1661.933594,261.790314 1654.696777,261.790314 1646.933350,261.790314 
	C1646.933350,206.257660 1646.933350,150.423187 1646.933350,94.185989 
	C1654.174561,94.185989 1661.713257,94.185989 1669.613403,94.185989 
	C1669.613403,147.293823 1669.613403,200.353256 1669.613281,253.895844 
z"/>
<path fill="#324355" opacity="1.000000" stroke="none" 
	d="
M1118.117432,95.013458 
	C1118.117432,149.166199 1118.067139,202.821136 1118.212402,256.475555 
	C1118.223999,260.789703 1117.264526,262.461426 1112.715210,262.097290 
	C1107.634766,261.690674 1102.496948,262.003998 1097.103760,262.003998 
	C1097.103760,201.936523 1097.103760,142.522598 1097.103760,82.727844 
	C1103.902222,82.727844 1110.633179,82.727844 1118.117310,82.727844 
	C1118.117310,86.668587 1118.117310,90.592049 1118.117432,95.013458 
z"/>
<path fill="#344657" opacity="1.000000" stroke="none" 
	d="
M870.050476,160.958893 
	C870.050476,164.259064 870.050476,167.071243 870.050476,170.356537 
	C865.086670,170.356537 860.471863,170.565689 855.882385,170.313416 
	C846.031982,169.771957 839.320312,174.980530 833.265381,181.868439 
	C829.478271,186.176575 827.585266,190.837311 827.550110,196.682327 
	C827.430054,216.654083 826.953003,236.623672 826.618774,256.594208 
	C826.591614,258.214386 826.615173,259.835419 826.615173,261.733337 
	C819.294373,261.733337 812.562927,261.733337 805.513062,261.733337 
	C805.513062,224.586288 805.513062,187.693970 805.513062,150.259003 
	C812.371704,150.259003 819.084290,150.259003 826.211670,150.259003 
	C826.211670,154.947128 826.211670,159.840485 826.211670,165.279739 
	C832.882996,159.910461 838.406433,153.455627 845.412964,150.387039 
	C852.523438,147.272888 861.097900,147.501526 870.050476,146.107483 
	C870.050476,151.972107 870.050476,156.221497 870.050476,160.958893 
z"/>
<path opacity="1.000000" stroke="none"
	d="
M1530.609497,148.597595 
	C1533.940918,140.579315 1537.142944,132.923065 1540.344971,125.266800 
	C1540.768433,125.170792 1541.191895,125.074783 1541.615356,124.978783 
	C1552.094360,150.084717 1562.573364,175.190659 1573.265869,200.808350 
	C1551.746216,200.808350 1530.717773,200.808350 1509.204956,200.808350 
	C1516.319702,183.469269 1523.399902,166.214432 1530.609497,148.597595 
z"/>
<path opacity="1.000000" stroke="none"
	d="
M736.187622,171.675018 
	C751.295166,180.281158 758.420959,197.253281 753.914185,214.762085 
	C752.489807,220.295959 750.200378,225.887299 747.084839,230.653595 
	C737.413025,245.449738 722.776062,245.577255 707.502869,242.822800 
	C699.500305,241.379593 693.437256,236.749451 689.198975,230.070526 
	C680.884949,216.968750 679.679077,202.992599 685.476501,188.589127 
	C694.661133,165.770142 720.040283,163.785568 736.187622,171.675018 
z"/>
<path opacity="1.000000" stroke="none"
	d="
M1216.278076,168.419495 
	C1235.211060,173.512283 1245.202637,188.923370 1242.923096,210.431000 
	C1239.921753,238.749084 1218.440796,249.112701 1195.431763,242.728516 
	C1178.577637,238.052155 1168.004517,219.906982 1170.470337,200.962631 
	C1173.647461,176.553268 1190.497192,164.428894 1216.278076,168.419495 
z"/>
</svg>